<svg xmlns="http://www.w3.org/2000/svg" xmlns:xlink="http://www.w3.org/1999/xlink" width="240" zoomAndPan="magnify" viewBox="0 0 180 42" height="56" preserveAspectRatio="xMidYMid meet" version="1.0"><defs><filter x="0%" y="0%" width="100%" height="100%" id="39f2890cec"><feColorMatrix values="0 0 0 0 1 0 0 0 0 1 0 0 0 0 1 0 0 0 1 0" color-interpolation-filters="sRGB"/></filter><g/><clipPath id="bd09806e1a"><path d="M 2.09375 0 L 177.90625 0 L 177.90625 41.023438 L 2.09375 41.023438 Z M 2.09375 0 " clip-rule="nonzero"/></clipPath><clipPath id="b98800626e"><path d="M 0.09375 0 L 175.90625 0 L 175.90625 41.023438 L 0.09375 41.023438 Z M 0.09375 0 " clip-rule="nonzero"/></clipPath><clipPath id="9e6de3e18a"><path d="M 48.441406 0 L 175.90625 0 L 175.90625 41.023438 L 48.441406 41.023438 Z M 48.441406 0 " clip-rule="nonzero"/></clipPath><linearGradient x1="75.28501" gradientTransform="matrix(0.732914, 0, 0, 0.731334, -6.737492, 7.334711)" y1="17.5" x2="249.203101" gradientUnits="userSpaceOnUse" y2="17.5" id="6f54702f14"><stop stop-opacity="1" stop-color="rgb(80.389404%, 100%, 84.709167%)" offset="0"/><stop stop-opacity="1" stop-color="rgb(80.389404%, 100%, 84.709167%)" offset="0.5"/><stop stop-opacity="1" stop-color="rgb(80.389404%, 100%, 84.709167%)" offset="0.53125"/><stop stop-opacity="1" stop-color="rgb(80.389404%, 100%, 84.709167%)" offset="0.546875"/><stop stop-opacity="1" stop-color="rgb(80.328369%, 99.925232%, 84.750366%)" offset="0.554688"/><stop stop-opacity="1" stop-color="rgb(79.968262%, 99.482727%, 84.997559%)" offset="0.558594"/><stop stop-opacity="1" stop-color="rgb(79.667664%, 99.113464%, 85.203552%)" offset="0.5625"/><stop stop-opacity="1" stop-color="rgb(79.367065%, 98.744202%, 85.40802%)" offset="0.566406"/><stop stop-opacity="1" stop-color="rgb(79.066467%, 98.374939%, 85.614014%)" offset="0.570312"/><stop stop-opacity="1" stop-color="rgb(78.765869%, 98.00415%, 85.820007%)" offset="0.574219"/><stop stop-opacity="1" stop-color="rgb(78.465271%, 97.634888%, 86.026001%)" offset="0.578125"/><stop stop-opacity="1" stop-color="rgb(78.163147%, 97.265625%, 86.231995%)" offset="0.582031"/><stop stop-opacity="1" stop-color="rgb(77.862549%, 96.896362%, 86.437988%)" offset="0.585938"/><stop stop-opacity="1" stop-color="rgb(77.561951%, 96.5271%, 86.642456%)" offset="0.589844"/><stop stop-opacity="1" stop-color="rgb(77.261353%, 96.157837%, 86.84845%)" offset="0.59375"/><stop stop-opacity="1" stop-color="rgb(76.960754%, 95.788574%, 87.054443%)" offset="0.597656"/><stop stop-opacity="1" stop-color="rgb(76.660156%, 95.419312%, 87.260437%)" offset="0.601562"/><stop stop-opacity="1" stop-color="rgb(76.359558%, 95.050049%, 87.466431%)" offset="0.605469"/><stop stop-opacity="1" stop-color="rgb(76.05896%, 94.680786%, 87.672424%)" offset="0.609375"/><stop stop-opacity="1" stop-color="rgb(75.758362%, 94.311523%, 87.876892%)" offset="0.613281"/><stop stop-opacity="1" stop-color="rgb(75.457764%, 93.942261%, 88.082886%)" offset="0.617188"/><stop stop-opacity="1" stop-color="rgb(75.15564%, 93.571472%, 88.288879%)" offset="0.621094"/><stop stop-opacity="1" stop-color="rgb(74.855042%, 93.202209%, 88.494873%)" offset="0.625"/><stop stop-opacity="1" stop-color="rgb(74.554443%, 92.832947%, 88.700867%)" offset="0.628906"/><stop stop-opacity="1" stop-color="rgb(74.253845%, 92.463684%, 88.90686%)" offset="0.632812"/><stop stop-opacity="1" stop-color="rgb(73.953247%, 92.094421%, 89.111328%)" offset="0.636719"/><stop stop-opacity="1" stop-color="rgb(73.652649%, 91.725159%, 89.317322%)" offset="0.640625"/><stop stop-opacity="1" stop-color="rgb(73.352051%, 91.355896%, 89.523315%)" offset="0.644531"/><stop stop-opacity="1" stop-color="rgb(73.051453%, 90.986633%, 89.729309%)" offset="0.648438"/><stop stop-opacity="1" stop-color="rgb(72.749329%, 90.617371%, 89.935303%)" offset="0.652344"/><stop stop-opacity="1" stop-color="rgb(72.44873%, 90.248108%, 90.141296%)" offset="0.65625"/><stop stop-opacity="1" stop-color="rgb(72.148132%, 89.878845%, 90.345764%)" offset="0.660156"/><stop stop-opacity="1" stop-color="rgb(71.847534%, 89.509583%, 90.551758%)" offset="0.664062"/><stop stop-opacity="1" stop-color="rgb(71.546936%, 89.138794%, 90.757751%)" offset="0.667969"/><stop stop-opacity="1" stop-color="rgb(71.246338%, 88.769531%, 90.963745%)" offset="0.671875"/><stop stop-opacity="1" stop-color="rgb(70.94574%, 88.400269%, 91.169739%)" offset="0.675781"/><stop stop-opacity="1" stop-color="rgb(70.645142%, 88.031006%, 91.375732%)" offset="0.679688"/><stop stop-opacity="1" stop-color="rgb(70.344543%, 87.661743%, 91.581726%)" offset="0.683594"/><stop stop-opacity="1" stop-color="rgb(70.043945%, 87.29248%, 91.78772%)" offset="0.6875"/><stop stop-opacity="1" stop-color="rgb(69.741821%, 86.923218%, 91.992188%)" offset="0.691406"/><stop stop-opacity="1" stop-color="rgb(69.441223%, 86.553955%, 92.198181%)" offset="0.695312"/><stop stop-opacity="1" stop-color="rgb(69.140625%, 86.184692%, 92.404175%)" offset="0.699219"/><stop stop-opacity="1" stop-color="rgb(68.840027%, 85.81543%, 92.610168%)" offset="0.703125"/><stop stop-opacity="1" stop-color="rgb(68.539429%, 85.446167%, 92.816162%)" offset="0.707031"/><stop stop-opacity="1" stop-color="rgb(68.238831%, 85.076904%, 93.022156%)" offset="0.710937"/><stop stop-opacity="1" stop-color="rgb(67.938232%, 84.706116%, 93.226624%)" offset="0.714844"/><stop stop-opacity="1" stop-color="rgb(67.637634%, 84.336853%, 93.432617%)" offset="0.71875"/><stop stop-opacity="1" stop-color="rgb(67.337036%, 83.96759%, 93.638611%)" offset="0.722656"/><stop stop-opacity="1" stop-color="rgb(67.036438%, 83.598328%, 93.844604%)" offset="0.726563"/><stop stop-opacity="1" stop-color="rgb(66.734314%, 83.229065%, 94.050598%)" offset="0.730469"/><stop stop-opacity="1" stop-color="rgb(66.433716%, 82.859802%, 94.256592%)" offset="0.734375"/><stop stop-opacity="1" stop-color="rgb(66.133118%, 82.49054%, 94.46106%)" offset="0.738281"/><stop stop-opacity="1" stop-color="rgb(65.83252%, 82.121277%, 94.667053%)" offset="0.742188"/><stop stop-opacity="1" stop-color="rgb(65.531921%, 81.752014%, 94.873047%)" offset="0.746094"/><stop stop-opacity="1" stop-color="rgb(65.231323%, 81.382751%, 95.079041%)" offset="0.75"/><stop stop-opacity="1" stop-color="rgb(64.930725%, 81.013489%, 95.285034%)" offset="0.753906"/><stop stop-opacity="1" stop-color="rgb(64.630127%, 80.644226%, 95.491028%)" offset="0.757812"/><stop stop-opacity="1" stop-color="rgb(64.328003%, 80.273438%, 95.695496%)" offset="0.761719"/><stop stop-opacity="1" stop-color="rgb(64.027405%, 79.904175%, 95.901489%)" offset="0.765625"/><stop stop-opacity="1" stop-color="rgb(63.726807%, 79.534912%, 96.107483%)" offset="0.769531"/><stop stop-opacity="1" stop-color="rgb(63.426208%, 79.165649%, 96.313477%)" offset="0.773438"/><stop stop-opacity="1" stop-color="rgb(63.12561%, 78.796387%, 96.51947%)" offset="0.777344"/><stop stop-opacity="1" stop-color="rgb(62.825012%, 78.427124%, 96.725464%)" offset="0.78125"/><stop stop-opacity="1" stop-color="rgb(62.524414%, 78.057861%, 96.929932%)" offset="0.785156"/><stop stop-opacity="1" stop-color="rgb(62.223816%, 77.688599%, 97.135925%)" offset="0.789062"/><stop stop-opacity="1" stop-color="rgb(61.923218%, 77.319336%, 97.341919%)" offset="0.792969"/><stop stop-opacity="1" stop-color="rgb(61.62262%, 76.950073%, 97.547913%)" offset="0.796875"/><stop stop-opacity="1" stop-color="rgb(61.320496%, 76.580811%, 97.753906%)" offset="0.800781"/><stop stop-opacity="1" stop-color="rgb(61.019897%, 76.211548%, 97.9599%)" offset="0.804688"/><stop stop-opacity="1" stop-color="rgb(60.719299%, 75.840759%, 98.165894%)" offset="0.808594"/><stop stop-opacity="1" stop-color="rgb(60.418701%, 75.471497%, 98.371887%)" offset="0.8125"/><stop stop-opacity="1" stop-color="rgb(60.118103%, 75.102234%, 98.576355%)" offset="0.816406"/><stop stop-opacity="1" stop-color="rgb(59.817505%, 74.732971%, 98.782349%)" offset="0.820312"/><stop stop-opacity="1" stop-color="rgb(59.516907%, 74.363708%, 98.988342%)" offset="0.824219"/><stop stop-opacity="1" stop-color="rgb(59.216309%, 73.994446%, 99.194336%)" offset="0.828125"/><stop stop-opacity="1" stop-color="rgb(58.91571%, 73.625183%, 99.40033%)" offset="0.832031"/><stop stop-opacity="1" stop-color="rgb(58.615112%, 73.25592%, 99.606323%)" offset="0.835938"/><stop stop-opacity="1" stop-color="rgb(58.326721%, 72.901917%, 99.803162%)" offset="0.839844"/><stop stop-opacity="1" stop-color="rgb(58.039856%, 72.549438%, 100%)" offset="0.84375"/><stop stop-opacity="1" stop-color="rgb(58.039856%, 72.549438%, 100%)" offset="0.875"/><stop stop-opacity="1" stop-color="rgb(58.039856%, 72.549438%, 100%)" offset="1"/></linearGradient><clipPath id="a4e2aab34f"><rect x="0" width="176" y="0" height="42"/></clipPath><clipPath id="7579e56211"><path d="M 0.09375 0 L 175.90625 0 L 175.90625 41.023438 L 0.09375 41.023438 Z M 0.09375 0 " clip-rule="nonzero"/></clipPath><clipPath id="ea182fa080"><rect x="0" width="176" y="0" height="42"/></clipPath><clipPath id="49669580d3"><rect x="0" width="176" y="0" height="42"/></clipPath><mask id="55a057b99e"><g filter="url(#39f2890cec)"><g transform="matrix(1, 0, 0, 1, 0, 0.000000000000004377)"><g clip-path="url(#49669580d3)"><g clip-path="url(#7579e56211)"><g transform="matrix(1, 0, 0, 1, 0, 0.000000000000004377)"><g clip-path="url(#ea182fa080)"><g fill="#000000" fill-opacity="1"><g transform="translate(119.120366, 31.500001)"><g><path d="M 0.03125 0 L 8.734375 -24.671875 L 19.65625 -24.671875 L 28.328125 0 L 17.96875 0 L 17.125 -2.78125 L 11.140625 -2.78125 L 10.28125 0 Z M 12.4375 -8.734375 L 15.859375 -8.734375 L 14.3125 -14.65625 L 13.984375 -14.65625 Z M 12.4375 -8.734375 "/></g></g></g><g fill="#000000" fill-opacity="1"><g transform="translate(145.041171, 31.500001)"><g><path d="M 1.71875 0 L 1.71875 -24.671875 L 11.796875 -24.671875 L 11.796875 0 Z M 1.71875 0 "/></g></g></g></g></g></g></g></g></g></mask><clipPath id="4e5c2fee16"><path d="M 48.441406 0 L 175.90625 0 L 175.90625 41.023438 L 48.441406 41.023438 Z M 48.441406 0 " clip-rule="nonzero"/></clipPath><clipPath id="a751e4f2b1"><rect x="0" width="176" y="0" height="42"/></clipPath><clipPath id="95a0d12d76"><rect x="0" width="176" y="0" height="42"/></clipPath></defs><g fill="#ffffff" fill-opacity="1"><g transform="translate(19.409246, 31.500001)"><g><path d="M 1.71875 0 L 1.71875 -24.671875 L 9.859375 -24.671875 L 16.875 -15.78125 L 23.859375 -24.671875 L 32 -24.671875 L 32 0 L 22.296875 0 L 22.296875 -4.890625 L 22.515625 -9.0625 L 22.203125 -9.125 L 19.203125 -4.890625 L 14.546875 -4.890625 L 11.515625 -9.125 L 11.234375 -9.09375 L 11.421875 -4.890625 L 11.421875 0 Z M 1.71875 0 "/></g></g></g><g fill="#ffffff" fill-opacity="1"><g transform="translate(50.648263, 31.500001)"><g><path d="M 12.15625 0.5 C 9.832031 0.5 7.804688 0.0898438 6.078125 -0.71875 C 4.347656 -1.53125 3 -2.679688 2.03125 -4.171875 C 1.070312 -5.660156 0.59375 -7.414062 0.59375 -9.4375 C 0.59375 -11.457031 1.070312 -13.210938 2.03125 -14.703125 C 3 -16.203125 4.347656 -17.363281 6.078125 -18.1875 C 7.804688 -19.007812 9.832031 -19.421875 12.15625 -19.421875 C 14.476562 -19.421875 16.503906 -19.007812 18.234375 -18.1875 C 19.960938 -17.363281 21.304688 -16.203125 22.265625 -14.703125 C 23.234375 -13.210938 23.71875 -11.457031 23.71875 -9.4375 C 23.71875 -7.414062 23.234375 -5.660156 22.265625 -4.171875 C 21.304688 -2.679688 19.960938 -1.53125 18.234375 -0.71875 C 16.503906 0.0898438 14.476562 0.5 12.15625 0.5 Z M 9.6875 -9.4375 C 9.6875 -8.6875 9.914062 -8.082031 10.375 -7.625 C 10.832031 -7.164062 11.425781 -6.9375 12.15625 -6.9375 C 12.90625 -6.9375 13.507812 -7.164062 13.96875 -7.625 C 14.425781 -8.082031 14.65625 -8.6875 14.65625 -9.4375 C 14.65625 -10.195312 14.425781 -10.8125 13.96875 -11.28125 C 13.507812 -11.75 12.90625 -11.984375 12.15625 -11.984375 C 11.425781 -11.984375 10.832031 -11.75 10.375 -11.28125 C 9.914062 -10.8125 9.6875 -10.195312 9.6875 -9.4375 Z M 9.6875 -9.4375 "/></g></g></g><g fill="#ffffff" fill-opacity="1"><g transform="translate(72.236952, 31.500001)"><g><path d="M 12.609375 0 C 9.609375 0 7.375 -0.644531 5.90625 -1.9375 C 4.4375 -3.226562 3.703125 -5.191406 3.703125 -7.828125 L 3.703125 -11.765625 L 0.421875 -11.765625 L 0.421875 -18.921875 L 2.046875 -18.921875 C 3.222656 -18.921875 4.023438 -19.097656 4.453125 -19.453125 C 4.890625 -19.804688 5.203125 -20.507812 5.390625 -21.5625 L 5.78125 -23.890625 L 13.078125 -23.890625 L 13.078125 -18.921875 L 17.09375 -18.921875 L 17.09375 -11.875 L 13.078125 -11.875 L 13.078125 -9.796875 C 13.078125 -8.972656 13.269531 -8.375 13.65625 -8 C 14.039062 -7.625 14.664062 -7.4375 15.53125 -7.4375 L 17.234375 -7.4375 L 17.234375 0 Z M 12.609375 0 "/></g></g></g><g fill="#ffffff" fill-opacity="1"><g transform="translate(88.049627, 31.500001)"><g><path d="M 1.578125 0 L 1.578125 -18.921875 L 10.953125 -18.921875 L 10.953125 0 Z M 1.0625 -25.578125 C 1.0625 -27.035156 1.53125 -28.21875 2.46875 -29.125 C 3.40625 -30.03125 4.671875 -30.484375 6.265625 -30.484375 C 7.867188 -30.484375 9.132812 -30.03125 10.0625 -29.125 C 10.988281 -28.21875 11.453125 -27.035156 11.453125 -25.578125 C 11.453125 -24.148438 10.988281 -22.976562 10.0625 -22.0625 C 9.132812 -21.144531 7.867188 -20.6875 6.265625 -20.6875 C 4.671875 -20.6875 3.40625 -21.144531 2.46875 -22.0625 C 1.53125 -22.976562 1.0625 -24.148438 1.0625 -25.578125 Z M 1.0625 -25.578125 "/></g></g></g><g fill="#ffffff" fill-opacity="1"><g transform="translate(98.12144, 31.500001)"><g><path d="M 10.078125 0.5 C 8.203125 0.5 6.546875 0.0820312 5.109375 -0.75 C 3.671875 -1.59375 2.554688 -2.757812 1.765625 -4.25 C 0.984375 -5.738281 0.59375 -7.46875 0.59375 -9.4375 C 0.59375 -11.4375 0.984375 -13.175781 1.765625 -14.65625 C 2.554688 -16.132812 3.671875 -17.289062 5.109375 -18.125 C 6.546875 -18.957031 8.203125 -19.375 10.078125 -19.375 C 11.390625 -19.375 12.585938 -19.175781 13.671875 -18.78125 C 14.753906 -18.382812 15.691406 -17.804688 16.484375 -17.046875 L 17.234375 -18.921875 L 23.890625 -18.921875 L 23.890625 7.046875 L 14.515625 7.046875 L 14.515625 -0.5 C 13.859375 -0.1875 13.160156 0.0546875 12.421875 0.234375 C 11.679688 0.410156 10.898438 0.5 10.078125 0.5 Z M 9.6875 -9.4375 C 9.6875 -8.6875 9.914062 -8.082031 10.375 -7.625 C 10.832031 -7.164062 11.425781 -6.9375 12.15625 -6.9375 C 12.90625 -6.9375 13.507812 -7.164062 13.96875 -7.625 C 14.425781 -8.082031 14.65625 -8.6875 14.65625 -9.4375 C 14.65625 -10.195312 14.425781 -10.8125 13.96875 -11.28125 C 13.507812 -11.75 12.90625 -11.984375 12.15625 -11.984375 C 11.425781 -11.984375 10.832031 -11.75 10.375 -11.28125 C 9.914062 -10.8125 9.6875 -10.195312 9.6875 -9.4375 Z M 9.6875 -9.4375 "/></g></g></g><g clip-path="url(#bd09806e1a)"><g transform="matrix(1, 0, 0, 1, 2, 0.000000000000004377)"><g clip-path="url(#95a0d12d76)"><g clip-path="url(#b98800626e)"><g mask="url(#55a057b99e)"><g transform="matrix(1, 0, 0, 1, 0, 0.000000000000004377)"><g clip-path="url(#a751e4f2b1)"><g clip-path="url(#4e5c2fee16)"><path fill="url(#6f54702f14)" d="M 48.441406 0 L 48.441406 41.023438 L 175.90625 41.023438 L 175.90625 0 Z M 48.441406 0 " fill-rule="nonzero"/></g></g></g></g></g></g></g></g></svg>