<svg xmlns="http://www.w3.org/2000/svg" xmlns:xlink="http://www.w3.org/1999/xlink" width="240" zoomAndPan="magnify" viewBox="0 0 180 42" height="56" preserveAspectRatio="xMidYMid meet" version="1.0"><defs><filter x="0%" y="0%" width="100%" height="100%" id="0fa37120bd"><feColorMatrix values="0 0 0 0 1 0 0 0 0 1 0 0 0 0 1 0 0 0 1 0" color-interpolation-filters="sRGB"/></filter><g/><clipPath id="17fb8f9e93"><path d="M 2.09375 0 L 177.90625 0 L 177.90625 41.023438 L 2.09375 41.023438 Z M 2.09375 0 " clip-rule="nonzero"/></clipPath><clipPath id="d5110eb245"><path d="M 0.09375 0 L 175.90625 0 L 175.90625 41.023438 L 0.09375 41.023438 Z M 0.09375 0 " clip-rule="nonzero"/></clipPath><clipPath id="c5b380a8f7"><path d="M 0.09375 0 L 175.90625 0 L 175.90625 41.023438 L 0.09375 41.023438 Z M 0.09375 0 " clip-rule="nonzero"/></clipPath><clipPath id="9c106dc68f"><path d="M 49.503906 0 L 175.90625 0 L 175.90625 41.023438 L 49.503906 41.023438 Z M 49.503906 0 " clip-rule="nonzero"/></clipPath><linearGradient x1="55.952999" gradientTransform="matrix(1.004165, 0, 0, 1.006546, -6.683959, 4.939003)" y1="15.5" x2="181.833619" gradientUnits="userSpaceOnUse" y2="15.5" id="1267b7b0ff"><stop stop-opacity="1" stop-color="rgb(80.389404%, 100%, 84.709167%)" offset="0"/><stop stop-opacity="1" stop-color="rgb(80.389404%, 100%, 84.709167%)" offset="0.5"/><stop stop-opacity="1" stop-color="rgb(80.389404%, 100%, 84.709167%)" offset="0.625"/><stop stop-opacity="1" stop-color="rgb(80.389404%, 100%, 84.709167%)" offset="0.65625"/><stop stop-opacity="1" stop-color="rgb(80.389404%, 100%, 84.709167%)" offset="0.664062"/><stop stop-opacity="1" stop-color="rgb(79.907227%, 99.407959%, 85.037231%)" offset="0.667969"/><stop stop-opacity="1" stop-color="rgb(79.426575%, 98.817444%, 85.366821%)" offset="0.671875"/><stop stop-opacity="1" stop-color="rgb(78.831482%, 98.086548%, 85.774231%)" offset="0.675781"/><stop stop-opacity="1" stop-color="rgb(78.236389%, 97.355652%, 86.181641%)" offset="0.679688"/><stop stop-opacity="1" stop-color="rgb(77.641296%, 96.624756%, 86.58905%)" offset="0.683594"/><stop stop-opacity="1" stop-color="rgb(77.046204%, 95.89386%, 86.99646%)" offset="0.6875"/><stop stop-opacity="1" stop-color="rgb(76.451111%, 95.162964%, 87.402344%)" offset="0.691406"/><stop stop-opacity="1" stop-color="rgb(75.857544%, 94.432068%, 87.809753%)" offset="0.695313"/><stop stop-opacity="1" stop-color="rgb(75.262451%, 93.701172%, 88.217163%)" offset="0.699219"/><stop stop-opacity="1" stop-color="rgb(74.667358%, 92.970276%, 88.624573%)" offset="0.703125"/><stop stop-opacity="1" stop-color="rgb(74.072266%, 92.23938%, 89.030457%)" offset="0.707031"/><stop stop-opacity="1" stop-color="rgb(73.477173%, 91.51001%, 89.437866%)" offset="0.710938"/><stop stop-opacity="1" stop-color="rgb(72.88208%, 90.779114%, 89.845276%)" offset="0.714844"/><stop stop-opacity="1" stop-color="rgb(72.286987%, 90.048218%, 90.252686%)" offset="0.71875"/><stop stop-opacity="1" stop-color="rgb(71.691895%, 89.317322%, 90.658569%)" offset="0.722656"/><stop stop-opacity="1" stop-color="rgb(71.096802%, 88.586426%, 91.065979%)" offset="0.726562"/><stop stop-opacity="1" stop-color="rgb(70.501709%, 87.85553%, 91.473389%)" offset="0.730469"/><stop stop-opacity="1" stop-color="rgb(69.906616%, 87.124634%, 91.880798%)" offset="0.734375"/><stop stop-opacity="1" stop-color="rgb(69.311523%, 86.393738%, 92.288208%)" offset="0.738281"/><stop stop-opacity="1" stop-color="rgb(68.716431%, 85.662842%, 92.695618%)" offset="0.742188"/><stop stop-opacity="1" stop-color="rgb(68.121338%, 84.931946%, 93.101501%)" offset="0.746094"/><stop stop-opacity="1" stop-color="rgb(67.526245%, 84.20105%, 93.508911%)" offset="0.75"/><stop stop-opacity="1" stop-color="rgb(66.931152%, 83.470154%, 93.916321%)" offset="0.753906"/><stop stop-opacity="1" stop-color="rgb(66.33606%, 82.739258%, 94.32373%)" offset="0.757813"/><stop stop-opacity="1" stop-color="rgb(65.740967%, 82.008362%, 94.729614%)" offset="0.761719"/><stop stop-opacity="1" stop-color="rgb(65.145874%, 81.277466%, 95.137024%)" offset="0.765625"/><stop stop-opacity="1" stop-color="rgb(64.550781%, 80.54657%, 95.544434%)" offset="0.769531"/><stop stop-opacity="1" stop-color="rgb(63.955688%, 79.815674%, 95.951843%)" offset="0.773438"/><stop stop-opacity="1" stop-color="rgb(63.360596%, 79.084778%, 96.357727%)" offset="0.777344"/><stop stop-opacity="1" stop-color="rgb(62.765503%, 78.353882%, 96.765137%)" offset="0.78125"/><stop stop-opacity="1" stop-color="rgb(62.17041%, 77.622986%, 97.172546%)" offset="0.785156"/><stop stop-opacity="1" stop-color="rgb(61.575317%, 76.89209%, 97.579956%)" offset="0.789062"/><stop stop-opacity="1" stop-color="rgb(60.980225%, 76.161194%, 97.987366%)" offset="0.792969"/><stop stop-opacity="1" stop-color="rgb(60.385132%, 75.430298%, 98.394775%)" offset="0.796875"/><stop stop-opacity="1" stop-color="rgb(59.790039%, 74.699402%, 98.800659%)" offset="0.800781"/><stop stop-opacity="1" stop-color="rgb(59.194946%, 73.970032%, 99.208069%)" offset="0.804688"/><stop stop-opacity="1" stop-color="rgb(58.616638%, 73.258972%, 99.603271%)" offset="0.808594"/><stop stop-opacity="1" stop-color="rgb(58.039856%, 72.549438%, 100%)" offset="0.8125"/><stop stop-opacity="1" stop-color="rgb(58.039856%, 72.549438%, 100%)" offset="0.875"/><stop stop-opacity="1" stop-color="rgb(58.039856%, 72.549438%, 100%)" offset="1"/></linearGradient><clipPath id="369cf4eb72"><rect x="0" width="176" y="0" height="42"/></clipPath><clipPath id="7c78473a80"><path d="M 0.09375 0 L 175.90625 0 L 175.90625 41.023438 L 0.09375 41.023438 Z M 0.09375 0 " clip-rule="nonzero"/></clipPath><clipPath id="c324b6dfb4"><rect x="0" width="176" y="0" height="42"/></clipPath><clipPath id="792b3d06ba"><rect x="0" width="176" y="0" height="42"/></clipPath><mask id="ffd00e8fef"><g filter="url(#0fa37120bd)"><g transform="matrix(1, 0, 0, 1, 0, 0.000000000000004377)"><g clip-path="url(#792b3d06ba)"><g clip-path="url(#7c78473a80)"><g transform="matrix(1, 0, 0, 1, 0, 0.000000000000004377)"><g clip-path="url(#c324b6dfb4)"><g fill="#000000" fill-opacity="1"><g transform="translate(133.599636, 35.07456)"><g><path d="M 1.890625 0 L 1.890625 -22.59375 L 9.84375 -22.59375 L 10.890625 -19.90625 C 12.410156 -21.695312 14.570312 -22.59375 17.375 -22.59375 L 20.484375 -22.59375 L 20.484375 -12.671875 L 17.078125 -12.671875 C 15.648438 -12.671875 14.628906 -12.335938 14.015625 -11.671875 C 13.398438 -11.015625 13.09375 -10 13.09375 -8.625 L 13.09375 0 Z M 1.890625 0 "/></g></g></g></g></g></g></g></g></g></mask><clipPath id="3fdae835f5"><path d="M 49.503906 0 L 175.90625 0 L 175.90625 41.023438 L 49.503906 41.023438 Z M 49.503906 0 " clip-rule="nonzero"/></clipPath><clipPath id="fdc85b9f57"><rect x="0" width="176" y="0" height="42"/></clipPath><clipPath id="2281daf493"><rect x="0" width="176" y="0" height="42"/></clipPath><clipPath id="423e908d2e"><rect x="0" width="176" y="0" height="42"/></clipPath></defs><g clip-path="url(#17fb8f9e93)"><g transform="matrix(1, 0, 0, 1, 2, 0.000000000000004377)"><g clip-path="url(#423e908d2e)"><g fill="#ffffff" fill-opacity="1"><g transform="translate(20.878149, 35.07456)"><g><path d="M 12.703125 0.59375 C 8.941406 0.59375 5.992188 -0.113281 3.859375 -1.53125 C 1.734375 -2.945312 0.671875 -4.929688 0.671875 -7.484375 L 11.234375 -7.484375 C 11.234375 -6.984375 11.382812 -6.582031 11.6875 -6.28125 C 12 -5.988281 12.378906 -5.84375 12.828125 -5.84375 C 13.253906 -5.84375 13.59375 -5.945312 13.84375 -6.15625 C 14.09375 -6.375 14.21875 -6.648438 14.21875 -6.984375 C 14.21875 -7.492188 13.910156 -7.878906 13.296875 -8.140625 C 12.679688 -8.410156 11.628906 -8.597656 10.140625 -8.703125 C 3.941406 -9.210938 0.84375 -11.53125 0.84375 -15.65625 C 0.84375 -18.0625 1.859375 -19.910156 3.890625 -21.203125 C 5.921875 -22.492188 8.832031 -23.140625 12.625 -23.140625 C 16.238281 -23.140625 19.054688 -22.457031 21.078125 -21.09375 C 23.097656 -19.738281 24.179688 -17.769531 24.328125 -15.1875 L 14.046875 -15.1875 C 14.046875 -15.695312 13.898438 -16.09375 13.609375 -16.375 C 13.316406 -16.65625 12.929688 -16.796875 12.453125 -16.796875 C 12.054688 -16.796875 11.734375 -16.6875 11.484375 -16.46875 C 11.234375 -16.257812 11.109375 -15.972656 11.109375 -15.609375 C 11.109375 -15.128906 11.414062 -14.769531 12.03125 -14.53125 C 12.644531 -14.300781 13.769531 -14.113281 15.40625 -13.96875 C 21.625 -13.40625 24.734375 -11.050781 24.734375 -6.90625 C 24.734375 -4.488281 23.695312 -2.632812 21.625 -1.34375 C 19.550781 -0.0507812 16.578125 0.59375 12.703125 0.59375 Z M 12.703125 0.59375 "/></g></g></g><g fill="#ffffff" fill-opacity="1"><g transform="translate(43.419375, 35.07456)"><g><path d="M 1.890625 0 L 1.890625 -31.140625 L 13.09375 -31.140625 L 13.09375 -21.546875 C 13.90625 -22.078125 14.785156 -22.484375 15.734375 -22.765625 C 16.691406 -23.046875 17.726562 -23.1875 18.84375 -23.1875 C 21.675781 -23.1875 23.914062 -22.335938 25.5625 -20.640625 C 27.207031 -18.941406 28.03125 -16.660156 28.03125 -13.796875 L 28.03125 0 L 16.828125 0 L 16.828125 -12 C 16.828125 -13.59375 16.210938 -14.390625 14.984375 -14.390625 C 13.722656 -14.390625 13.09375 -13.578125 13.09375 -11.953125 L 13.09375 0 Z M 1.890625 0 "/></g></g></g><g fill="#ffffff" fill-opacity="1"><g transform="translate(70.082157, 35.07456)"><g><path d="M 14.515625 0.59375 C 11.734375 0.59375 9.3125 0.109375 7.25 -0.859375 C 5.195312 -1.828125 3.59375 -3.203125 2.4375 -4.984375 C 1.289062 -6.765625 0.71875 -8.863281 0.71875 -11.28125 C 0.71875 -13.6875 1.289062 -15.78125 2.4375 -17.5625 C 3.59375 -19.34375 5.195312 -20.722656 7.25 -21.703125 C 9.3125 -22.691406 11.734375 -23.1875 14.515625 -23.1875 C 17.296875 -23.1875 19.71875 -22.691406 21.78125 -21.703125 C 23.84375 -20.722656 25.445312 -19.34375 26.59375 -17.5625 C 27.738281 -15.78125 28.3125 -13.6875 28.3125 -11.28125 C 28.3125 -8.863281 27.738281 -6.765625 26.59375 -4.984375 C 25.445312 -3.203125 23.84375 -1.828125 21.78125 -0.859375 C 19.71875 0.109375 17.296875 0.59375 14.515625 0.59375 Z M 11.578125 -11.28125 C 11.578125 -10.382812 11.847656 -9.660156 12.390625 -9.109375 C 12.941406 -8.566406 13.648438 -8.296875 14.515625 -8.296875 C 15.410156 -8.296875 16.128906 -8.566406 16.671875 -9.109375 C 17.222656 -9.660156 17.5 -10.382812 17.5 -11.28125 C 17.5 -12.175781 17.222656 -12.90625 16.671875 -13.46875 C 16.128906 -14.03125 15.410156 -14.3125 14.515625 -14.3125 C 13.648438 -14.3125 12.941406 -14.03125 12.390625 -13.46875 C 11.847656 -12.90625 11.578125 -12.175781 11.578125 -11.28125 Z M 11.578125 -11.28125 "/></g></g></g><g fill="#ffffff" fill-opacity="1"><g transform="translate(96.156151, 35.07456)"><g><path d="M 1.890625 0 L 1.890625 -22.59375 L 9.84375 -22.59375 L 10.890625 -19.90625 C 12.410156 -21.695312 14.570312 -22.59375 17.375 -22.59375 L 20.484375 -22.59375 L 20.484375 -12.671875 L 17.078125 -12.671875 C 15.648438 -12.671875 14.628906 -12.335938 14.015625 -11.671875 C 13.398438 -11.015625 13.09375 -10 13.09375 -8.625 L 13.09375 0 Z M 1.890625 0 "/></g></g></g><g fill="#ffffff" fill-opacity="1"><g transform="translate(114.702009, 35.07456)"><g><path d="M 15.0625 0 C 11.46875 0 8.796875 -0.769531 7.046875 -2.3125 C 5.296875 -3.851562 4.421875 -6.195312 4.421875 -9.34375 L 4.421875 -14.046875 L 0.5 -14.046875 L 0.5 -22.59375 L 2.4375 -22.59375 C 3.84375 -22.59375 4.800781 -22.800781 5.3125 -23.21875 C 5.832031 -23.644531 6.207031 -24.488281 6.4375 -25.75 L 6.90625 -28.53125 L 15.609375 -28.53125 L 15.609375 -22.59375 L 20.40625 -22.59375 L 20.40625 -14.1875 L 15.609375 -14.1875 L 15.609375 -11.703125 C 15.609375 -10.710938 15.835938 -9.992188 16.296875 -9.546875 C 16.765625 -9.097656 17.519531 -8.875 18.5625 -8.875 L 20.578125 -8.875 L 20.578125 0 Z M 15.0625 0 "/></g></g></g><g clip-path="url(#d5110eb245)"><g transform="matrix(1, 0, 0, 1, 0, 0.000000000000004377)"><g clip-path="url(#2281daf493)"><g clip-path="url(#c5b380a8f7)"><g mask="url(#ffd00e8fef)"><g transform="matrix(1, 0, 0, 1, 0, 0.000000000000004377)"><g clip-path="url(#fdc85b9f57)"><g clip-path="url(#3fdae835f5)"><path fill="url(#1267b7b0ff)" d="M 49.503906 0 L 49.503906 41.023438 L 175.90625 41.023438 L 175.90625 0 Z M 49.503906 0 " fill-rule="nonzero"/></g></g></g></g></g></g></g></g></g></g></g></svg>